{
    "asset" : {
        "generator" : "Khronos glTF Blender I/O v1.7.33",
        "version" : "2.0"
    },
    "scene" : 0,
    "scenes" : [
        {
            "name" : "Scene",
            "nodes" : [
                0
            ]
        }
    ],
    "nodes" : [
        {
            "mesh" : 0,
            "name" : "Icosphere"
        }
    ],
    "materials" : [
        {
            "doubleSided" : true,
            "name" : "Material.001",
            "pbrMetallicRoughness" : {
                "baseColorFactor" : [
                    0.800000011920929,
                    0.800000011920929,
                    0.800000011920929,
                    1
                ],
                "metallicFactor" : 0,
                "roughnessFactor" : 0.5
            }
        },
        {
            "doubleSided" : true,
            "name" : "Material.002",
            "pbrMetallicRoughness" : {
                "baseColorFactor" : [
                    0.699999988079071,
                    0,
                    0.006874352693557739,
                    1
                ],
                "metallicFactor" : 0
            }
        },
        {
            "doubleSided" : true,
            "name" : "Material.003",
            "pbrMetallicRoughness" : {
                "baseColorFactor" : [
                    0.2529420554637909,
                    0.2529420554637909,
                    0.2529420554637909,
                    1
                ],
                "metallicFactor" : 0,
                "roughnessFactor" : 0.5
            }
        },
        {
            "doubleSided" : true,
            "name" : "Material.004",
            "pbrMetallicRoughness" : {
                "baseColorFactor" : [
                    0.06680598855018616,
                    0.06680598855018616,
                    0.06680598855018616,
                    1
                ],
                "metallicFactor" : 0,
                "roughnessFactor" : 0.5
            }
        }
    ],
    "meshes" : [
        {
            "name" : "Icosphere",
            "primitives" : [
                {
                    "attributes" : {
                        "POSITION" : 0,
                        "NORMAL" : 1,
                        "TEXCOORD_0" : 2
                    },
                    "indices" : 3,
                    "material" : 0
                },
                {
                    "attributes" : {
                        "POSITION" : 4,
                        "NORMAL" : 5,
                        "TEXCOORD_0" : 6
                    },
                    "indices" : 7,
                    "material" : 1
                },
                {
                    "attributes" : {
                        "POSITION" : 8,
                        "NORMAL" : 9,
                        "TEXCOORD_0" : 10
                    },
                    "indices" : 11,
                    "material" : 2
                },
                {
                    "attributes" : {
                        "POSITION" : 12,
                        "NORMAL" : 13,
                        "TEXCOORD_0" : 14
                    },
                    "indices" : 15,
                    "material" : 3
                }
            ]
        }
    ],
    "accessors" : [
        {
            "bufferView" : 0,
            "componentType" : 5126,
            "count" : 587,
            "max" : [
                1.0000004768371582,
                -0.061262618750333786,
                1.0186456441879272
            ],
            "min" : [
                -0.999999463558197,
                -0.961263120174408,
                -0.9999999403953552
            ],
            "type" : "VEC3"
        },
        {
            "bufferView" : 1,
            "componentType" : 5126,
            "count" : 587,
            "type" : "VEC3"
        },
        {
            "bufferView" : 2,
            "componentType" : 5126,
            "count" : 587,
            "type" : "VEC2"
        },
        {
            "bufferView" : 3,
            "componentType" : 5123,
            "count" : 645,
            "type" : "SCALAR"
        },
        {
            "bufferView" : 4,
            "componentType" : 5126,
            "count" : 587,
            "max" : [
                0.9999995827674866,
                0.961263120174408,
                1.0186456441879272
            ],
            "min" : [
                -1.0000003576278687,
                0.061261456459760666,
                -0.9999999403953552
            ],
            "type" : "VEC3"
        },
        {
            "bufferView" : 5,
            "componentType" : 5126,
            "count" : 587,
            "type" : "VEC3"
        },
        {
            "bufferView" : 6,
            "componentType" : 5126,
            "count" : 587,
            "type" : "VEC2"
        },
        {
            "bufferView" : 7,
            "componentType" : 5123,
            "count" : 645,
            "type" : "SCALAR"
        },
        {
            "bufferView" : 8,
            "componentType" : 5126,
            "count" : 200,
            "max" : [
                0.9000003933906555,
                0.06126375123858452,
                1.0186456441879272
            ],
            "min" : [
                -0.900000274181366,
                -0.06126491352915764,
                -0.9987687468528748
            ],
            "type" : "VEC3"
        },
        {
            "bufferView" : 9,
            "componentType" : 5126,
            "count" : 200,
            "type" : "VEC3"
        },
        {
            "bufferView" : 10,
            "componentType" : 5126,
            "count" : 200,
            "type" : "VEC2"
        },
        {
            "bufferView" : 11,
            "componentType" : 5123,
            "count" : 300,
            "type" : "SCALAR"
        },
        {
            "bufferView" : 12,
            "componentType" : 5126,
            "count" : 44,
            "max" : [
                0.2953237295150757,
                0.1837896853685379,
                1.0186456441879272
            ],
            "min" : [
                0.01720738597214222,
                -0.1837894767522812,
                0.9745964407920837
            ],
            "type" : "VEC3"
        },
        {
            "bufferView" : 13,
            "componentType" : 5126,
            "count" : 44,
            "type" : "VEC3"
        },
        {
            "bufferView" : 14,
            "componentType" : 5126,
            "count" : 44,
            "type" : "VEC2"
        },
        {
            "bufferView" : 15,
            "componentType" : 5123,
            "count" : 60,
            "type" : "SCALAR"
        }
    ],
    "bufferViews" : [
        {
            "buffer" : 0,
            "byteLength" : 7044,
            "byteOffset" : 0
        },
        {
            "buffer" : 0,
            "byteLength" : 7044,
            "byteOffset" : 7044
        },
        {
            "buffer" : 0,
            "byteLength" : 4696,
            "byteOffset" : 14088
        },
        {
            "buffer" : 0,
            "byteLength" : 1290,
            "byteOffset" : 18784
        },
        {
            "buffer" : 0,
            "byteLength" : 7044,
            "byteOffset" : 20076
        },
        {
            "buffer" : 0,
            "byteLength" : 7044,
            "byteOffset" : 27120
        },
        {
            "buffer" : 0,
            "byteLength" : 4696,
            "byteOffset" : 34164
        },
        {
            "buffer" : 0,
            "byteLength" : 1290,
            "byteOffset" : 38860
        },
        {
            "buffer" : 0,
            "byteLength" : 2400,
            "byteOffset" : 40152
        },
        {
            "buffer" : 0,
            "byteLength" : 2400,
            "byteOffset" : 42552
        },
        {
            "buffer" : 0,
            "byteLength" : 1600,
            "byteOffset" : 44952
        },
        {
            "buffer" : 0,
            "byteLength" : 600,
            "byteOffset" : 46552
        },
        {
            "buffer" : 0,
            "byteLength" : 528,
            "byteOffset" : 47152
        },
        {
            "buffer" : 0,
            "byteLength" : 528,
            "byteOffset" : 47680
        },
        {
            "buffer" : 0,
            "byteLength" : 352,
            "byteOffset" : 48208
        },
        {
            "buffer" : 0,
            "byteLength" : 120,
            "byteOffset" : 48560
        }
    ],
    "buffers" : [
        {
            "byteLength" : 48680,
            "uri" : "data:application/octet-stream;base64,"
        }
    ]
}
